<svg width="202" height="214" viewBox="0 0 202 214" fill="none" xmlns="http://www.w3.org/2000/svg">
<g id="Group 38">
<path id="Vector" d="M0 62.3111C0 57.9911 0 53.6577 0 49.3111C0 47.7311 0.169996 45.9011 2.23 46.3111C5.6 46.9111 8.84 46.0311 12.14 45.9811C14.32 45.9811 16.14 46.2211 16.14 49.1111C16.14 52.0011 14.71 52.8111 12.03 52.8511C10.25 52.8511 7.89 51.6711 6.75 54.0911C5.42 56.9311 7.17 59.2211 10.62 59.1911C12.97 59.1911 15.13 59.2511 15.2 62.3211C15.27 65.7011 12.94 66.1011 10.43 65.6111C7.53999 65.0511 6.58999 65.9711 6.53999 68.9011C6.48999 71.8311 7.41999 73.2911 10.54 72.9011C11.54 72.7911 12.54 72.8311 13.54 72.7711C15.88 72.6411 16.27 74.1611 16.29 75.9911C16.31 77.8211 15.69 78.9211 13.74 78.9211C9.92001 78.9211 6.09999 78.9211 2.28999 78.9211C0.0199933 78.9211 0.179993 77.2911 0.179993 75.7811C0.179993 71.2877 0.179993 66.7977 0.179993 62.3111H0Z" fill="white"/>
<path id="Vector_2" d="M24 153.751C22.53 156.271 24.59 155.901 25.87 155.891C30.65 155.891 35.44 155.971 40.21 155.621C44.98 155.271 46.27 157.381 46.15 161.731C45.95 168.591 45.15 169.961 40.03 169.981C38.71 169.981 37.4 170.031 36.09 170.051C26.64 168.951 17.18 169.941 7.72004 169.911C4.11004 169.911 2.86004 168.641 2.72004 164.911C2.55629 162.465 2.89404 160.011 3.71256 157.7C4.53108 155.389 5.81311 153.269 7.48003 151.471C14.13 143.851 20.2 135.711 26.38 127.691C29.0138 124.422 30.428 120.339 30.38 116.141C30.31 112.321 28.57 109.791 24.88 108.881C20.88 107.881 18.1 109.531 16.39 113.161C14.79 116.551 5.54003 118.481 2.76003 115.981C1.43003 114.791 1.94004 113.221 2.08004 111.781C2.97004 102.161 11.36 94.5211 21.67 93.9111C33.19 93.2311 41.95 99.7211 44.06 110.721C45.54 118.361 44.54 125.641 39.9 132.101C34.61 139.391 29.26 146.541 24 153.751Z" fill="white"/>
<path id="Vector_3" d="M9.92998 21.161C9.92998 24.391 9.86998 26.871 9.92998 29.341C9.98998 31.811 8.92998 33.001 6.42998 33.081C3.92998 33.161 3.02998 31.911 3.05998 29.431C3.15998 20.961 3.05998 12.491 3.13998 4.02104C3.13998 2.58104 2.24999 0.451049 4.96999 0.231049C7.15999 0.0510486 9.32998 -0.18895 10.31 2.56105C11.67 6.43105 13.15 10.261 14.7 14.441C17.32 10.901 18.09 6.78105 19.57 3.01105C20.34 1.01105 21.34 0.0110474 23.51 0.0110474C26.11 0.0610474 26.51 1.92105 26.51 3.76105C26.61 12.551 26.56 21.341 26.59 30.131C26.59 32.691 25 33.021 22.96 33.0611C20.77 33.0611 20.05 32.0611 20.09 30.0611C20.17 26.7411 20.09 23.421 20.09 19.351C17.66 21.661 18.32 25.411 15.45 26.351C11.38 27.681 12.16 23.291 9.92998 21.161Z" fill="white"/>
<path id="Vector_4" d="M61.67 21.3411C61.67 23.9811 61.51 26.641 61.67 29.271C61.86 31.741 61.21 33.021 58.51 33.081C56.07 33.081 54.9 32.561 54.95 29.771C55.1 21.131 55.01 12.491 54.95 3.86104C54.95 2.28104 54.95 0.791056 56.88 0.341056C57.7481 0.0414985 58.6974 0.0811379 59.5375 0.452048C60.3776 0.822958 61.0465 1.49772 61.41 2.34106C63.24 5.81106 63.75 9.88104 66.84 13.671C66.84 9.96104 66.89 6.93105 66.84 3.91105C66.84 2.03105 66.42 0.211046 69.29 0.081046C71.84 -0.028954 73.62 0.611052 73.68 3.43105C73.78 7.74105 73.68 12.0611 73.68 16.3711C73.68 20.1911 73.76 24.0111 73.76 27.8211C73.76 29.9211 74.33 32.441 71.33 33.031C68.81 33.521 67.42 32.1111 66.48 29.8111C65.26 26.8111 63.74 23.921 62.35 20.991L61.67 21.3411Z" fill="white"/>
<path id="Vector_5" d="M143 76.991C139.83 80.821 138.05 79.3711 135.88 76.0311C134 70 131.59 67.63 131.12 65.5C131.031 66.8922 131.524 74.7835 130.9 76.0311C130.63 79.6211 127.96 79.0911 125.72 78.8711C123.29 78.6311 123.81 76.5511 123.82 74.9711C123.93 65.6711 124.08 56.371 124.21 47.071C127.74 45.071 129.82 46.621 131.12 49.901C132.42 53.181 133.29 56.341 135.88 59.901C135.88 55.901 135.93 52.901 135.88 49.791C135.88 47.791 135.88 46.191 138.56 46.071C141 45.971 142.47 46.861 142.63 49.261C142.85 52.5511 142.85 55.861 142.89 59.171C142.91 65.121 142.94 71.071 143 76.991Z" fill="white"/>
<path id="Vector_6" d="M78.5 14.1611C78.5 10.6711 78.61 7.16109 78.5 3.71109C78.38 0.711094 80.02 0.161094 82.56 0.101094C85.56 0.0310936 85.11 2.1011 85.12 3.8111C85.12 9.9611 85 16.1211 85.12 22.2611C85.12 24.1511 84.92 26.8611 87.64 26.9011C90.36 26.9411 90.09 24.3611 90.1 22.3911C90.1 16.3911 90.1234 10.3911 90.17 4.39109C90.17 2.46109 89.53 0.161088 92.74 0.111088C95.32 0.111088 96.91 1.11109 96.9 3.86109C96.9 10.8611 97.15 17.8611 96.75 24.8611C96.43 30.3711 92.24 33.6611 87 33.3611C81.92 33.0811 78.91 29.8011 78.61 24.1311C78.52 22.4811 78.61 20.8111 78.61 19.1311L78.5 14.1611Z" fill="white"/>
<path id="Vector_7" d="M181.09 16.6811C181.09 12.1911 181.09 7.68109 181.09 3.22109C181.09 1.61109 181.26 0.221086 183.4 0.221086C186.88 0.221086 190.4 0.121088 193.84 0.0510879C196.03 0.00108788 197.31 0.821095 197.18 3.26109C197.05 5.70109 196.03 6.84109 193.45 6.79109C191.53 6.79109 188.71 5.27109 188 8.29109C187.36 11.0011 187.17 14.2911 191.92 13.3511C194.31 12.9111 196.3 13.5111 196.34 16.5411C196.38 19.5711 194.46 20.0411 192 19.7311C189.37 19.4111 187.71 19.7311 187.73 23.2311C187.73 27.2311 190.06 27.1611 192.59 26.7811C195.29 26.3711 197.36 26.5211 197.45 29.8511C197.54 33.4111 195.04 33.0611 192.61 33.0111C181.24 32.7811 181.24 32.8111 181.25 21.2111V16.7211L181.09 16.6811Z" fill="white"/>
<path id="Vector_8" d="M28.74 55.2711C29.5 52.5011 29.86 50.7311 30.48 49.0511C30.6412 48.4826 30.9208 47.9546 31.3005 47.5019C31.6802 47.0491 32.1513 46.6817 32.683 46.4239C33.2147 46.1661 33.7949 46.0236 34.3855 46.0059C34.9761 45.9882 35.5638 46.0956 36.11 46.3211C39.29 47.4011 37.22 49.9111 36.44 51.1411C31.75 58.5611 32.59 65.6411 36.69 72.9511C37.57 74.5311 40.25 77.2411 36.77 78.7311C33.29 80.2211 31.16 78.1911 30.34 74.7311C30 73.3011 29.57 71.8911 29.1 70.1511C27.1 72.1511 26.87 74.5911 25.99 76.6911C24.93 79.2311 22.62 79.5211 20.55 78.8211C17.72 77.8211 19.39 75.7011 20.19 74.3611C24.89 66.4611 25.24 58.6711 20.33 50.6911C19.63 49.5411 17.53 47.3011 20.73 46.3611C22.88 45.7311 25.06 45.9511 26.06 48.6011C26.75 50.4111 27.52 52.2311 28.74 55.2711Z" fill="white"/>
<path id="Vector_9" d="M63.32 65.0811C63.32 59.9311 63.37 54.7711 63.32 49.6211C63.32 47.0911 64.17 46.0011 66.89 46.2811C69.2045 46.3624 71.5217 46.309 73.83 46.1211C76.19 46.1211 79.28 44.9911 79.61 48.8411C79.94 52.6911 77.18 52.8411 74.28 52.8411C72.72 52.8411 70.36 51.7711 70.15 54.8411C69.96 57.6811 70.21 59.9711 74.02 59.2311C76.74 58.7011 78.82 59.4711 78.78 62.5511C78.78 65.9211 76.22 65.9511 73.78 65.5011C70.78 64.9411 70.13 66.3611 70.11 69.0911C70.09 71.8211 70.82 73.2311 73.75 72.9111C74.9055 72.778 76.067 72.7046 77.23 72.6911C79.12 72.6911 79.97 73.8411 79.95 75.5411C79.93 77.2411 79.75 78.9711 77.33 78.9511C73.51 78.9511 69.68 78.9511 65.86 78.9511C63.86 78.9511 63.38 77.9511 63.45 76.0811C63.59 72.4211 63.45 68.7611 63.45 65.0811H63.32Z" fill="white"/>
<path id="Vector_10" d="M120.07 73.9911C120.57 77.8811 119.07 79.1511 115.02 78.9911C103.56 78.5111 103.71 78.701 103.89 66.9911C103.98 61.2311 104.38 55.4111 103.18 49.6811C103.5 47.2811 104.29 45.681 107.3 46.221C109.37 46.561 111.56 46.111 113.69 46.081C116.22 46.081 119.58 44.971 119.78 49.021C119.96 52.791 116.95 53.021 114.15 52.691C111.15 52.381 109.98 53.371 110.15 56.531C110.32 59.691 112.24 59.3911 114.28 59.1511C116.99 58.8311 118.97 59.4511 118.83 62.6811C118.69 65.9111 116.41 65.8911 114.17 65.5311C111.55 65.1111 110.17 65.5311 110.17 68.6911C110.11 72.0211 111.32 73.2211 114.53 72.8811C116.43 72.7411 118.51 72.1711 120.07 73.9911Z" fill="white"/>
<path id="Vector_11" d="M157 79.1911C155.527 79.242 154.059 78.9945 152.684 78.4635C151.309 77.9324 150.056 77.1289 149 76.1011C145.69 68.2411 146.64 60.1811 147.92 52.1011C148.61 47.7211 151.65 46.0411 155.72 45.9611C159.79 45.8811 162.78 47.5711 164.19 51.5411C164.72 53.0411 165.81 54.8711 163.81 55.9611C162.01 56.9611 159.95 57.2511 158.67 54.8911C158.12 53.8911 157.67 52.6011 156.22 52.8911C154.77 53.1811 154.47 54.7811 154.22 56.0111C153.436 60.2591 153.294 64.6009 153.8 68.8911C153.92 70.2211 154.05 71.7811 155.52 72.2111C156.99 72.6411 157.71 71.6511 158.37 70.2111C159.46 67.8811 161.82 68.4211 163.61 69.0211C166.12 69.8611 164.41 71.7811 164.16 73.2111C163.46 77.2511 160.41 78.4611 157 79.1911Z" fill="white"/>
<path id="Vector_12" d="M40.9 62.491C41.26 59.201 41.58 55.911 42 52.621C42.55 48.291 45.34 46.291 49.43 46.021C53.52 45.751 56.84 47.421 58.43 51.581C58.99 53.101 60.1 54.911 58.09 55.941C56.36 56.841 54.21 57.361 52.95 54.941C52.41 53.941 51.95 52.711 50.48 52.941C48.72 53.251 48.91 54.8411 48.61 56.0611C47.53 60.4811 47.91 64.961 48.14 69.431C48.0908 70.0163 48.2303 70.6019 48.538 71.1022C48.8457 71.6024 49.3055 71.991 49.85 72.211C51.15 72.631 52.01 71.981 52.53 70.711C53.66 67.951 56.16 68.321 57.99 69.141C60.35 70.211 58.71 72.301 58.23 73.901C57.09 77.631 54.23 78.981 50.6 79.051C46.97 79.121 44.16 77.821 42.67 74.271C41 70.481 41.1 66.501 40.9 62.491Z" fill="white"/>
<path id="Vector_13" d="M131.89 14.111C131.89 15.771 131.94 17.431 131.89 19.111C131.72 25.941 131.71 26.001 138.49 26.271C140.4 26.341 141.34 27.051 141.24 28.891C141.14 30.731 141.48 32.891 138.82 33.011C135.01 33.161 131.18 33.011 127.36 33.061C125.23 33.061 125.08 31.641 125.08 30.061C125.08 21.061 125.08 12.131 124.98 3.16103C124.98 0.581034 126.28 0.221034 128.41 0.161034C130.54 0.101034 131.89 0.861034 131.89 3.16103C131.88 6.80103 131.89 10.451 131.89 14.111Z" fill="white"/>
<path id="Vector_14" d="M100 77.9011C99.35 78.3211 98.69 78.7311 98 79.1411C97.67 79.1411 97.35 79.0411 97 79.0111C92.77 78.5711 87.14 80.9111 84.67 77.9011C82.57 75.3411 83.83 69.9611 83.75 65.8311C83.66 60.6711 83.75 55.5211 83.75 50.3611C83.75 48.2011 83.42 46.0911 86.87 46.0311C90.32 45.9711 90.76 47.9011 90.75 50.4111C90.75 56.5511 90.75 62.7111 90.49 68.8411C90.32 72.3011 91.77 73.5311 94.82 72.7111C99.85 71.3611 100.7 73.7611 100 77.9011Z" fill="white"/>
<path id="Vector_15" d="M40.05 199.991C53.99 200.311 67.93 200.601 81.87 200.991C83.25 201.041 85.87 199.901 85.87 202.351C85.87 204.801 83.37 203.981 81.87 203.981C68.59 203.981 55.31 203.981 42.03 203.981C31.61 201.801 21.26 203.541 10.89 204.471C8.35001 204.691 3.97001 206.471 3.75001 203.051C3.53001 199.631 8.19001 200.711 10.75 200.611C20.52 200.251 30.29 200.191 40.05 199.991Z" fill="white"/>
<path id="Vector_16" d="M176 62.5411C176 67.0211 175.89 71.5411 176.05 75.9711C176.13 78.5611 174.8 78.9711 172.68 78.9711C170.56 78.9711 169.11 78.6111 169.13 76.0411C169.18 67.2611 169.13 58.4811 169.13 49.6911C169.13 46.8611 170.69 46.0411 173.28 46.0411C176.28 46.0411 176.28 47.9511 176.22 50.0411C176.17 54.1911 176.22 58.3311 176.22 62.4711L176 62.5411Z" fill="white"/>
<path id="Vector_17" d="M128.66 155.681C135.5 155.681 141.15 155.831 146.79 155.621C150.56 155.491 152.18 156.711 152.21 160.701C152.28 169.121 151.53 169.971 143.11 169.891C133.47 169.791 123.83 169.741 114.2 169.891C109.96 169.971 108.85 168.171 108.83 164.181C108.645 159.721 110.222 155.368 113.22 152.061C119.22 145.191 124.87 137.991 130.49 130.791C133.36 127.121 135.87 123.161 136.41 118.341C136.89 114.201 136.1 110.581 131.69 109.001C127.57 107.521 124.32 109.091 122.44 114.061C120.84 118.321 117.57 116.791 114.9 116.821C107.44 116.921 106.9 116.011 108.9 108.721C111.64 98.5911 121.15 92.8011 133 93.9911C142.75 94.9911 150.28 103.901 150.88 114.861C151.34 123.331 148.01 130.331 142.95 136.801C138.31 142.811 133.8 148.891 128.66 155.681Z" fill="white"/>
<path id="Vector_18" d="M192.29 131.451C202.29 138.801 204.48 150.531 197.99 161.041C192.41 170.041 179.76 173.041 169.74 167.471C163.01 163.721 160.74 157.111 159.44 150.081C159.285 149.506 159.34 148.894 159.595 148.356C159.849 147.817 160.287 147.386 160.83 147.141C163.36 146.141 166.02 146.421 168.7 146.431C171.94 146.431 172.55 148.131 173.48 150.821C174.8 154.621 177.66 157.211 182.36 156.141C185.98 155.321 188.69 151.441 188.56 147.041C188.43 142.421 184.86 137.751 180.22 137.161C177.22 136.781 176.06 135.721 176.22 132.861C176.38 130.001 175.22 126.581 179.58 125.081C186.32 122.751 188.58 118.941 187.39 113.281C186.66 109.771 184.68 107.521 181.08 107.221C177.48 106.921 175.15 108.941 173.87 112.221C173.2 113.951 173.71 116.651 170.93 116.781C167.48 116.931 163.86 117.721 160.63 115.971C158.97 115.061 159.27 113.191 159.53 111.471C160.87 102.391 167.09 95.3811 175.08 94.0811C185.51 92.3811 194.28 96.1611 198.64 104.221C202.77 111.871 201.3 122.331 195.16 128.801C194.31 129.751 193.28 130.561 192.29 131.451Z" fill="white"/>
<path id="Vector_19" d="M110.05 213.631C104.77 207.911 99.5 207.031 93.55 211.541C92.93 207.591 96.08 205.271 95.85 202.121C95.6 198.741 92.15 197.241 90.85 194.511C91.85 193.351 92.85 193.861 93.75 194.031C98.02 194.841 101.13 193.631 103.05 189.501C103.62 188.291 104.35 186.431 106.2 186.851C107.62 187.171 107.92 188.851 108.02 190.091C108.49 196.091 113.29 196.471 119.02 197.701C112.47 201.491 108.09 205.701 110.05 213.631Z" fill="white"/>
<path id="Vector_20" d="M160.78 204.041C149.3 204.041 137.83 204.041 126.35 203.991C124.88 203.991 122.28 204.911 122.22 202.681C122.15 199.911 124.94 201.031 126.53 200.951C143.66 200.161 160.76 201.001 177.86 201.951C183.86 202.271 189.75 200.741 195.72 200.321C197.63 200.181 200.72 198.961 200.94 202.081C201.1 204.731 198.03 204.341 196.2 204.361C184.39 204.461 172.59 204.411 160.78 204.411V204.041Z" fill="white"/>
<path id="Vector_21" d="M97.54 109.331C95.8 101.331 90.3 95.871 81.97 94.331C78.43 93.671 74.68 94.111 71.03 94.041C62.28 96.381 58.96 103.531 56.03 111.041C55.89 112.041 55.79 113.041 55.61 113.981C53.21 127.031 52.52 140.111 56.4 152.981C58.75 160.741 63.35 167.381 71.4 169.741C83.69 173.321 94.67 166.741 97.94 154.351C101.87 139.311 100.77 124.211 97.54 109.331ZM85.41 148.201C84.41 151.981 82.79 155.101 78.36 155.401C73.93 155.701 71.36 152.791 70.46 149.211C67.3412 137.28 67.5695 124.721 71.12 112.911C71.86 110.321 74.12 109.031 76.78 108.681C79.44 108.331 81.54 109.681 82.98 111.921C84.379 114.186 85.1583 116.78 85.24 119.441C85.5 124.241 85.85 129.031 86.08 132.501C85.69 138.621 86.63 143.451 85.41 148.201Z" fill="white"/>
<path id="Vector_22" d="M177 14.4611C177.24 3.03109 173.6 -0.398911 162.11 0.131089C159.5 0.251089 158.6 1.26109 158.66 3.74109C158.75 8.06109 158.66 12.3711 158.66 16.6811C158.66 20.3311 158.95 24.0111 158.59 27.6311C158.13 32.1711 159.95 33.7211 164.24 33.0611C165.237 32.9602 166.239 32.9201 167.24 32.9411C173.43 32.7611 176.35 30.1011 176.82 23.9411C177.1 20.7711 177 17.6111 177 14.4611ZM169.82 24.6311C169.54 26.1211 168.25 26.7411 166.82 26.6311C164.82 26.4711 165.19 24.8811 165.17 23.6311C165.17 21.3011 165.17 18.9711 165.17 16.6311C165.17 14.2911 165.17 11.9711 165.17 9.63109C165.17 8.36109 164.78 6.75109 166.78 6.63109C168.41 6.50109 170.02 7.11109 170.27 8.80109C171.007 14.065 170.862 19.4149 169.84 24.6311H169.82Z" fill="white"/>
<path id="Vector_23" d="M121.26 29.4411C118.86 20.8211 116.92 12.0811 114.75 3.44108C114.3 1.65108 113.75 -0.0489237 111.24 0.00107632C109.19 0.00107632 107.59 0.53108 107.03 2.66108C104.67 11.6611 102.32 20.5811 100.03 29.5611C99.7 30.9011 99.2701 32.8111 101.57 33.0011C103.46 33.1511 105.72 33.7411 106.57 31.0011C106.823 30.2118 107.007 29.4021 107.12 28.5811C107.41 26.1511 109.12 25.9311 111.07 25.7911C113.35 25.6311 113.92 26.8711 114.07 28.7911C114.25 31.3711 115.07 33.3811 118.4 33.0511C121 33.2911 122.18 32.7611 121.26 29.4411ZM111.37 19.9211C111.107 20.1051 110.803 20.223 110.484 20.2648C110.166 20.3066 109.842 20.271 109.54 20.1611C107.9 18.0811 109.54 16.2811 110.27 13.1611C111.5 16.0411 113.1 17.8211 111.37 19.9211Z" fill="white"/>
<path id="Vector_24" d="M51.05 28.9211C49 20.2111 46.72 11.5611 44.57 2.92106C44.12 1.10106 43.33 -0.0289361 41.23 0.0210639C39.42 0.0210639 37.76 0.461067 37.23 2.32107C34.69 11.5711 32.23 20.8711 30.23 28.7211C29.86 31.6011 29.8 32.9211 31.74 33.0711C34.01 33.2511 36.29 33.1911 36.81 30.3811C37.33 27.5711 38.09 25.6911 41.43 25.7911C45.05 25.9111 43.77 28.7911 44.29 30.5311C45.2 33.7011 47.69 33.2211 49.96 33.0111C53.52 32.6311 51.35 30.2011 51.05 28.9211ZM41.42 19.9211C41.1609 20.1066 40.8594 20.2239 40.5431 20.2624C40.2268 20.3008 39.9059 20.2591 39.61 20.1411C37.7 17.9011 40.14 16.0111 40.33 13.7711C41.05 15.7711 43.3 17.6111 41.42 19.9111V19.9211Z" fill="white"/>
<path id="Vector_25" d="M200.7 74.8411C198.58 66.3211 196.35 57.8411 194.24 49.2911C193.82 47.5911 193.57 46.0111 191.33 45.9611C189.09 45.9111 187.33 46.2811 186.66 48.7111C184.327 57.6711 182.013 66.6411 179.72 75.6211C179.38 76.9411 179.15 78.5611 180.91 78.8211C182.67 79.0811 184.66 79.8211 185.78 77.6211C186.256 76.7421 186.564 75.7825 186.69 74.7911C186.91 72.0411 188.69 71.8511 190.88 71.7911C193.21 71.7411 193.63 73.2311 193.72 75.0111C193.87 77.8511 195.14 79.3611 198.12 78.9211C201.93 79.4111 201.23 76.9911 200.7 74.8411ZM191.51 65.6111C191.151 65.9091 190.724 66.1128 190.266 66.2036C189.808 66.2944 189.336 66.2695 188.89 66.1311C186.82 64.4711 189.71 63.0611 188.74 60.9111C191.47 62.4911 192.2 63.9911 191.51 65.6111Z" fill="white"/>
</g>
</svg>
