<svg width="34" height="34" viewBox="0 0 34 34" fill="none" xmlns="http://www.w3.org/2000/svg">
<path d="M31 31L21.6667 21.6667M3 13.8889C3 15.3188 3.28165 16.7348 3.82887 18.0559C4.37609 19.377 5.17815 20.5774 6.18928 21.5885C7.20041 22.5996 8.40079 23.4017 9.72189 23.9489C11.043 24.4961 12.4589 24.7778 13.8889 24.7778C15.3188 24.7778 16.7348 24.4961 18.0559 23.9489C19.377 23.4017 20.5774 22.5996 21.5885 21.5885C22.5996 20.5774 23.4017 19.377 23.9489 18.0559C24.4961 16.7348 24.7778 15.3188 24.7778 13.8889C24.7778 12.4589 24.4961 11.043 23.9489 9.72189C23.4017 8.40079 22.5996 7.20041 21.5885 6.18928C20.5774 5.17815 19.377 4.37609 18.0559 3.82887C16.7348 3.28165 15.3188 3 13.8889 3C12.4589 3 11.043 3.28165 9.72189 3.82887C8.40079 4.37609 7.20041 5.17815 6.18928 6.18928C5.17815 7.20041 4.37609 8.40079 3.82887 9.72189C3.28165 11.043 3 12.4589 3 13.8889Z" stroke="#DA8433" stroke-width="5" stroke-linecap="round" stroke-linejoin="round"/>
</svg>
